/* XPM */
static char *_6846e678c4b4975b9c8d38ada6c19b2dJmFFVgpyl0m5CHq[] = {
/* columns rows colors chars-per-pixel */
"50 50 212 2 ",
"   c None",
".  c #151414",
"X  c #161A15",
"o  c #1C1C1B",
"O  c #191B16",
"+  c #10180E",
"@  c #11210E",
"#  c #1C221A",
"$  c #1C2C1C",
"%  c #192719",
"&  c #1E351C",
"*  c #21211E",
"=  c #272A1E",
"-  c #23321E",
";  c #382E1E",
":  c #1D1F23",
">  c #1D2323",
",  c #1D3821",
"<  c #232422",
"1  c #2A2722",
"2  c #242B24",
"3  c #2B2A25",
"4  c #24292D",
"5  c #2C2C2A",
"6  c #23262A",
"7  c #312D26",
"8  c #312F2B",
"9  c #253222",
"0  c #283426",
"q  c #253B23",
"w  c #2A3B25",
"e  c #2E332D",
"r  c #2C3B2C",
"t  c #253F29",
"y  c #333426",
"u  c #34332C",
"i  c #3A352C",
"p  c #3D392E",
"a  c #343B28",
"s  c #2D3333",
"d  c #2E3935",
"f  c #343532",
"g  c #3B3732",
"h  c #363936",
"j  c #3C3B33",
"k  c #35393C",
"l  c #3B3C3C",
"z  c #34363B",
"x  c #433E35",
"c  c #413F39",
"v  c #4A3F35",
"b  c #4C3F28",
"n  c #244225",
"m  c #294525",
"M  c #2C4329",
"N  c #284929",
"B  c #33452D",
"V  c #32482D",
"C  c #2E4736",
"Z  c #324833",
"A  c #3A4B34",
"S  c #3C433B",
"D  c #364339",
"F  c #315135",
"G  c #3A5333",
"H  c #39513E",
"J  c #3B5B37",
"K  c #31532A",
"L  c #464236",
"P  c #43423C",
"I  c #4A453B",
"U  c #4D4A3E",
"Y  c #484237",
"T  c #52493D",
"R  c #594E3F",
"E  c #415C3A",
"W  c #5D523C",
"Q  c #46422D",
"!  c #665536",
"~  c #755F3E",
"^  c #44673C",
"/  c #48763E",
"(  c #72603E",
")  c #363C42",
"_  c #3A3D41",
"`  c #3C3E49",
"'  c #3C4145",
"]  c #3D434A",
"[  c #3C5841",
"{  c #434443",
"}  c #484640",
"|  c #4C4A43",
" . c #43494D",
".. c #4C4E4C",
"X. c #424848",
"o. c #544D42",
"O. c #4A5A44",
"+. c #4E524E",
"@. c #4D5849",
"#. c #545145",
"$. c #52534E",
"%. c #5B5649",
"&. c #454B51",
"*. c #4B5354",
"=. c #535453",
"-. c #595A55",
";. c #545A5D",
":. c #5B5C5B",
">. c #525658",
",. c #655643",
"<. c #765E43",
"1. c #4C6D44",
"2. c #4D6646",
"3. c #526B4C",
"4. c #52644B",
"5. c #4D7945",
"6. c #577A4D",
"7. c #5C6356",
"8. c #5E625D",
"9. c #576853",
"0. c #5C7A52",
"q. c #756348",
"w. c #62635E",
"e. c #686A5E",
"r. c #786A54",
"t. c #65775B",
"y. c #7B725B",
"u. c #5C5E62",
"i. c #5D6466",
"p. c #5D6669",
"a. c #636561",
"s. c #676963",
"d. c #696B65",
"f. c #6C6E6A",
"g. c #65676B",
"h. c #6F706D",
"j. c #697A63",
"k. c #71736E",
"l. c #79776B",
"z. c #727D6C",
"x. c #797767",
"c. c #6B6E71",
"v. c #656C70",
"b. c #6D7472",
"n. c #737672",
"m. c #767A72",
"M. c #7A7B75",
"N. c #7C7E7A",
"B. c #8A6F49",
"V. c #836C4A",
"C. c #89744B",
"Z. c #8C7555",
"A. c #887857",
"S. c #997E59",
"D. c #837B62",
"F. c #827664",
"G. c #53874A",
"H. c #5C8B52",
"J. c #488242",
"K. c #63915B",
"L. c #618658",
"P. c #73856A",
"I. c #7D827C",
"U. c #7E8678",
"Y. c #719E73",
"T. c #7C946E",
"R. c #79B46F",
"E. c #7CCA76",
"W. c #958359",
"Q. c #A2835B",
"!. c #A1895D",
"~. c #B08D5E",
"^. c #81827E",
"/. c #948A61",
"(. c #A68C62",
"). c #AC9365",
"_. c #B49869",
"`. c #83AB73",
"'. c #8DB874",
"]. c #82AE6B",
"[. c #A9A27A",
"{. c #BAA676",
"}. c #C3AE79",
"|. c #83CF7C",
" X c #98C57C",
".X c #97DB7E",
"XX c #8BEB73",
"oX c #D4C47E",
"OX c #858684",
"+X c #8D8C89",
"@X c #898985",
"#X c #8F918B",
"$X c #A69B80",
"%X c #BBB687",
"&X c #CEBE85",
"*X c #A1CF86",
"=X c #99E98D",
"-X c #9CF494",
";X c #A6EE8C",
":X c #A3EF82",
">X c #ABF58B",
",X c #A9F999",
"<X c #A1F993",
"1X c #B6F996",
"2X c #CEC390",
"3X c #DDD291",
"4X c #D9C78F",
"5X c #C0FA9E",
"6X c #DFD6B9",
"7X c #E7DBA3",
"8X c #F6F4CE",
"9X c #E7E6E4",
/* pixels */
"                                                                                                    ",
"                                                                                                    ",
"                                                                                                    ",
"                                                                                                    ",
"                                                                                                    ",
"                                                                                                    ",
"                                                                                                    ",
"                                                                                                    ",
"                                                                                                    ",
"                                                                                                    ",
"                                        '.E.-X=X                                                    ",
"                                  v.p.Y.|.E.-X<X,X,X,X=X=X|.                                        ",
"                              :.:.;.*.K.XXXXXX:X1X5X1X;X;X=X`.w.8.:.:.u.                            ",
"                        @XOXn.a.:.=...4.R..X;X>X1X1X>X:X>X1X].#...8.g.i.u.>.                        ",
"                      n.n.n.h.k.M.M.^.^.z.P.T.`.`.'. X*X X'.t.$.i.c.c.;.&.&.&. .                    ",
"          [.        M.n.k.k.w.f.k.n.N.^.^.N.I.I.I.m.k.k.7.-.:.c.v.p.;.*.&.) ' ' _                   ",
"        8X3X).C.! l.k.n.k.d.:.a.f.k.n.n.n.m.M.M.^.OXI.@X#XM.b.b.i.;.*.&.] ) ) k 4                   ",
"        8X7XW.&X}.W.y.e.e.s.s.f.h.m.M.M.M.n.n.f.n.M.M.N.M.f.N.g.>.*. . .] ] k 4 6                   ",
"          A.b A.{.{.}._.(.A.r.y.l.m.m.M.m.M.m.k.h.d.d.d.8.f.N.n.&.' '  .] ) 4 > 4                   ",
"              7 o.o.R ,.V.!._.).(.W.A.y.x.l.M.M.m.k.h.c.n.n.m.M.=.' ' ] k > > >                     ",
"                f e 5 < # 8 o.q.Z.Q.~.).!.W.A.D.F.x.l.n.M.M.M.I.a.X.` z : o o o                     ",
"                  0 $ X < j e 5 g x T ,.r.Z.S.Q.Q.S.Z.A.F.x.x.$Xr.{ { h * j 0 2                     ",
"                  D r $ 5 P j f U L i 7 u i x T ,.<.V.B.B.B.C._.( D.%X/.Q U 9 $                     ",
"                  S r 0 e c j j #.%.| L L c 1 3 5 8 U %.! q.! ! C.7X7X3X[.d.0 n                     ",
"                  } M - 5 j j j #.%.U I Y Y j x L 7 8 =.+.| v ; W 2XoX4X6X9XU.J                     ",
"                  E / N 3 j j j o.#.T Y p x p I U L 8 u e e f 3 1 W Z.~ F.@X7.Z                     ",
"                  1.5.N 3 j i j o.o.U Y x L p I U I u u - $ # # X # p i g c - n                     ",
"                  O.^ m 3 p j j U o.I x x I i L I L 8 y G w % @ + $ w j j } r F                     ",
"                  @.^ M j c j i U U I Y L I y c I L 7 y G w 2 & & $ r g j { d F                     ",
"                  3.5.B =.-.$.P | U L L I L u x L j 3 a G 9 2 $ & & A j { X.s Z                     ",
"                  0./ V -.-.-.-.-.-.| U L j 7 j c i 1 a 5.J 0 - , n G P { h 2 D D                   ",
"                P.0.3.B P | =.=.$.$.=...$.} j c c u = a G.J.m q m N [ ..l 5 3 d k                   ",
"                z.t.4.D 5 8 h P | ....{ +.=.:.-.=.c 3 B G./ J K N n [ X.s 5 f s k '                 ",
"                m.j.@.S f 5 < < f l { P ..+.=.=.=.-.$.@.H.E Z G m , H h < h { h l _                 ",
"                k.8.@.P _ l f 5 1 3 5 5 h P ..=.=.+.$.9.G.E j V q q H $ 2 =...l l                   ",
"              M.d.8.$.l z l l f 5 < * * < # < f S ....4.H.1.D A M t H %     ..{                     ",
"            OXM.s.-.{ s h           < o o O X * * * 2 4.H.6.A G M M H                               ",
"              s.-.=.l l                 o o o o o . + 3.K.6.2.E r C H                               ",
"                  { h                         X o X O t.L.3.1.1.r C D                               ",
"                                                  . 2 z.j.9.9.2.r d '                               ",
"                                                      U.z.d.7.O.e s ' ]                             ",
"                                                      #Xm.d.e.| e s ] ]                             ",
"                                                    +X+X^.s.-.+.e s ) ]                             ",
"                                                    N.M.M.h.w.$.f s _ k                             ",
"                                                    ^.@XM.d.w.=.s s _                               ",
"                                                    M.k.f.f.d.:.X._ _                               ",
"                                                          d.s.s.:.{                                 ",
"                                                              a.:.                                  ",
"                                                                                                    ",
"                                                                                                    "
};
