/* XPM */
static char *_b873409c62440baf72c519b92a9c7fchrj6qsY9eAojGPoy[] = {
/* columns rows colors chars-per-pixel */
"50 50 167 2 ",
"   c None",
".  c #271F1F",
"X  c #2E221F",
"o  c #37231E",
"O  c #39221A",
"+  c gray15",
"@  c #2C2625",
"#  c #272827",
"$  c #2E2827",
"%  c #2B2A2A",
"&  c #3A2A26",
"*  c #332D2B",
"=  c #3B2E2C",
"-  c #343333",
";  c #3A3332",
":  c #3E3837",
">  c #3C3738",
",  c #3C3A3B",
"<  c #43251D",
"1  c #45291F",
"2  c #422C25",
"3  c #4B2C23",
"4  c #422F29",
"5  c #4A2F29",
"6  c #45322D",
"7  c #4B342E",
"8  c #52362E",
"9  c #53392F",
"0  c #5B392E",
"q  c #423734",
"w  c #4A3630",
"e  c #4D3933",
"r  c #433E3D",
"t  c #4B3D3A",
"y  c #553932",
"u  c #5C3B31",
"i  c #613E33",
"p  c #44403E",
"a  c #52413E",
"s  c #754D2D",
"d  c #664135",
"f  c #66443A",
"g  c #6A463B",
"h  c #6B493D",
"j  c #744C33",
"k  c #704A3F",
"l  c #794F39",
"z  c #7A523C",
"x  c #434243",
"c  c #4A4545",
"v  c #4E4947",
"b  c #494748",
"n  c #4C4B4C",
"m  c #554742",
"M  c #514947",
"N  c #514D4C",
"B  c #57514F",
"V  c #4E4D50",
"C  c #545353",
"Z  c #5A5555",
"A  c #595759",
"S  c #5C5C5C",
"D  c #6D4A40",
"F  c #734C42",
"G  c #7A4E43",
"H  c #62534E",
"J  c #6C534D",
"K  c #745247",
"L  c #7E5445",
"P  c #745149",
"I  c #7E5549",
"U  c #7D5B4F",
"Y  c #6F5852",
"T  c #625D5D",
"R  c #775851",
"E  c #7D6057",
"W  c #7F615B",
"Q  c #5D5E61",
"!  c #605F60",
"~  c #5F6062",
"^  c #646364",
"/  c #686667",
"(  c #6C6B6C",
")  c #716464",
"_  c #706967",
"`  c #706F6F",
"'  c #6F6E70",
"]  c #716F71",
"[  c #737373",
"{  c #7C7573",
"}  c #777779",
"|  c #7B7A7B",
" . c #80563C",
".. c #895E3F",
"X. c #805543",
"o. c #835947",
"O. c #885E41",
"+. c #805649",
"@. c #845A4C",
"#. c #885E4E",
"$. c #855E52",
"%. c #885E51",
"&. c #8D624F",
"*. c #936747",
"=. c #91654D",
"-. c #816157",
";. c #8D6254",
":. c #84635A",
">. c #8D6558",
",. c #836B5D",
"<. c #926656",
"1. c #946851",
"2. c #986B54",
"3. c #926658",
"4. c #94685A",
"5. c #9A6D5E",
"6. c #9F705D",
"7. c #A0724F",
"8. c #A07152",
"9. c #A07058",
"0. c #846762",
"q. c #886E63",
"w. c #826F68",
"e. c #946D61",
"r. c #9D6F61",
"t. c #81726F",
"y. c #88746F",
"u. c #9E7062",
"i. c #9F7163",
"p. c #9E7061",
"a. c #9E7062",
"s. c #96786F",
"d. c #A17261",
"f. c #A47363",
"g. c #A57365",
"h. c #A77665",
"j. c #A27263",
"k. c #A97665",
"l. c #A97665",
"z. c #AA7866",
"x. c #A07668",
"c. c #AA7668",
"v. c #A1807A",
"b. c #7F7F80",
"n. c #818182",
"m. c #868586",
"M. c #848484",
"N. c #888787",
"B. c #868888",
"V. c #8A8989",
"C. c #8B8A8D",
"Z. c #8D8B8E",
"A. c gray56",
"S. c #8C8C8C",
"D. c #8F8F90",
"F. c #908F90",
"G. c #919091",
"H. c #949395",
"J. c #939393",
"K. c #989797",
"L. c #999799",
"P. c #9C9B9B",
"I. c #9F9E9F",
"U. c #9B9B9C",
"Y. c #9F9EA1",
"T. c #A6A5A6",
"R. c #A3A3A3",
/* pixels */
"                                                                                                    ",
"                                                                                                    ",
"                                                                                                    ",
"                                          [ , n.] n m.C.' % ^                                       ",
"                                      A Y.C., * ; @ ; ; > n C.b -                                   ",
"                                  V.A.V T > & f f u h h 8 = c , ! ( -                               ",
"                                A A.T . o u >.p.4.+.d.p.>.d 9 X ( / x -                             ",
"                              V.Z , 2 h $.I 5.r.3.+.h.d.3.I 5.L 5 = - | |                           ",
"                            ^ [ c 2 ;.p.3.I o.1.3.+.k.d.3.o.g.3.G L m ^ Z -                         ",
"                          A I.( & k 3.p.3.I X.*.3.+.k.d.3.o.c.<.I p.f @ ( S                         ",
"                          / C N 7 G 4.f.<.I X.*.3.+.h.d.3.o.g.<.I p.F t | T ,                       ",
"                        ` T./ & I I 4.k.3.I =.2.3.+.p.p.3.I p.<.I p.L 5 * C A                       ",
"                        ( ] , y 5.I 4.k.3.I p.r.<.+.r.p.<.I p.<.I p.+.F t [ S -                     ",
"                        [ [ ; h p.I 4.k.3.I r.p.3.I p.;.;.I p.<.I ;.L %.6 ( ^ -                     ",
"                        T.G.: h p.I 3.d.3.I r.p.3.I p.L O.+.p.3.I L j %.e P.C.,                     ",
"                        ^ C @ h p.I 3.p.3.I p.p.<.I p.L ..+.p.3.I L s #.2 ~ C +                     ",
"                        n.m.r h p.I 3.p.3.I h.d.<.I p.L ..+.p.3.I L j >.a H.N.x                     ",
"                        ^ A @ h p.I 3.p.3.I k.d.3.I p.L ..+.p.3.I ,.,.t.N / C #                     ",
"                        A.S.p h p.I 3.p.3.I k.d.3.I p.X.O.+.p.<.P ) ( ^ x / / x                     ",
"                        | | * h <.G 3.p.3.I k.d.3.+.i. .O.I p.<.K T Z Z , n ( -                     ",
"                        ( / ; h X.j 3.p.3.I k.d.3.+.p.I #.I p.<.L e.I R q ( ^ -                     ",
"                        I.P.r h X.s 3.9.<.I d.d.3.+.p.+.%.I p.<.I p.+.%.e U.H.x                     ",
"                        A Z $ D @.j 3.8.1.I p.r.3.I r.5.3.I p.<.I p.+.%.4 / S %                     ",
"                        C [ C h r.L <.7.1.I p.r.3.I r.p.3.I p.3.I d.+.$.e H.K.Z                     ",
"                        ( H.v h p.I <.8.1.I r.r.3.I r.p.3.I p.3.I k.@.$.w H.K.n                     ",
"                        ^ A @ h p.I <.6.<.I r.p.3.+.p.r.3.I p.3.I k.@.$.4 A n +                     ",
"                        V.D.N h d.L 3.p.3.I 5.p.3.I p.p.3.I p.3.I k.@.@.e / ( x                     ",
"                        V.| : h j.$.>.e.:.I r.r.3.I d.h.<.I p.3.I h.@.@.w n.S -                     ",
"                        C x $ h x.s.y.0.Y J r.p.3.I d.k.<.I p.3.I p.+.%.4 S x +                     ",
"                        G.V.r h p.@.v.i.4.-.r.p.<.I d.k.3.I p.<.I p.+.%.e G.V.x                     ",
"                        | ^ * h i.I E 4.-.U r.p.3.I d.k.3.I p.<.I p.+.%.6 b.^ %                     ",
"                        [ ( : h p.I >.:.$.I r.p.3.I d.k.3.I r.;.I p.+.%.6 ( ^ ,                     ",
"                        T.R.v h f.I <.i.3.I r.r.3.I d.k.3.+.4.l I p.+.%.w G.P.n                     ",
"                        A.| * k z.I <.i.3.I r.r.3.I d.k.<.+.3.s L p.+.#.7 A.| -                     ",
"                        A , @ F z.I 3.;.&.I p.r.3.I p.d.3.+.3.s L p.+.%.4 ^ n %                     ",
"                        ^ S N k z.I 3.L O.I 5.5.3.+.p.r.3.+.3.s L p.+.#.e H.G.Z                     ",
"                        S n.b k z.I 3.X...I o.1.3.+.r.p.3.+.3.j I p.+.$.e L.P.n                     ",
"                        ( S $ h f.I 3.X...+.L *.3.+.r.p.3.+.5.@.I i.$.q.M } ^ %                     ",
"                        ( ^ > h d.I 3.X...I ;.2.3.+.r.p.<.I p.3.L w.{ _ c ( ^ ,                     ",
"                        I.R.T h p.I 3.X...+.p.r.3.+.p.p.3.I p.<.P T Q S n G.| n                     ",
"                        A.R.Z h p.I 3.X...+.r.r.3.I p.p.3.I p.<.K W J H x / ^ x                     ",
"                        m.| , h p.I 3.I O.+.r.r.3.I d.h.3.I p.<.I i.I $.6 / A -                     ",
"                        S n @ f =.I 3.;.&.+.r.r.3.I d.k.3.I p.3.I p.I %.4 ^ b %                     ",
"                        G.P.B i  .L 3.p.3.I r.r.3.I d.k.3.I p.<.I ;.z @.e G.A.C                     ",
"                        A.A.b f =.I 3.p.3.I r.r.3.I d.k.3.I p.<.I L j %.w F.| -                     ",
"                        V.( * h d.I 3.p.3.I r.r.3.I d.h.3.I p.3.I ;.L %.w m.S %                     ",
"                        S n $ u r.I 3.p.3.I p.p.3.+.p.d.3.I p.<.I r.I #.4 S b %                     ",
"                        V.| r 1 F L 3.p.3.+.p.#.h d @.p.3.+.p.4.I @.0 g 4 m.B.x                     ",
"                        ( C * O 3 0 f D g i g 3 < < 3 g g i D g u 3 < 2 & | / %                     ",
"                                                                                                    "
};
