/* XPM */
static char *ce796f2c95594d3ef2765d8685088455L988GTUICyalG1fq[] = {
/* columns rows colors chars-per-pixel */
"50 50 181 2 ",
"   c None",
".  c #080A0C",
"X  c #0F1113",
"o  c #111214",
"O  c #13161A",
"+  c #15191D",
"@  c #181B1F",
"#  c #201C1A",
"$  c #36281F",
"%  c #3A261C",
"&  c #171C23",
"*  c #191E23",
"=  c #1D2226",
"-  c #1E242A",
";  c #1F2830",
":  c #21262D",
">  c #22282F",
",  c #292A2C",
"<  c #252527",
"1  c #302621",
"2  c #372B24",
"3  c #3E312A",
"4  c #33312F",
"5  c #232B32",
"6  c #262F38",
"7  c #273039",
"8  c #2A333C",
"9  c #2D3034",
"0  c #323234",
"q  c #33383E",
"w  c #3A393C",
"e  c #323438",
"r  c #422A1C",
"t  c #4D2D1A",
"y  c #5B351E",
"u  c #56301B",
"i  c #482F20",
"p  c #4C3322",
"a  c #44352C",
"s  c #46382F",
"d  c #523723",
"f  c #583620",
"g  c #553925",
"h  c #5C3A23",
"j  c #553B28",
"k  c #453B35",
"l  c #4B3C32",
"z  c #453D3A",
"x  c #483F3B",
"c  c #613A22",
"v  c #695116",
"b  c #735918",
"n  c #5E432D",
"m  c #5A4325",
"M  c #4B423D",
"N  c #4F4136",
"B  c #524135",
"V  c #5F4630",
"C  c #5A493C",
"Z  c #56463A",
"A  c #634125",
"S  c #6D4326",
"D  c #644229",
"F  c #6E4B2E",
"G  c #674A26",
"H  c #714527",
"J  c #754A2B",
"K  c #7A4E2D",
"L  c #714528",
"P  c #7D512F",
"I  c #735B26",
"U  c #6B4C32",
"Y  c #614C3C",
"T  c #704F33",
"R  c #6E5037",
"E  c #6E5138",
"W  c #715035",
"Q  c #7E5332",
"!  c #725339",
"~  c #79573D",
"^  c #7F5F39",
"/  c #2B3641",
"(  c #2D3945",
")  c #2F3C49",
"_  c #323C45",
"`  c #313D4A",
"'  c #33414E",
"]  c #3C434B",
"[  c #344046",
"{  c #364452",
"}  c #394654",
"|  c #3A4957",
" . c #3C4C5B",
".. c #3F4F60",
"X. c #3F5061",
"o. c #4D4541",
"O. c #40474D",
"+. c #43484F",
"@. c #554B44",
"#. c #594E47",
"$. c #464D54",
"%. c #414F5E",
"&. c #4C555E",
"*. c #4A555D",
"=. c #5C5B5D",
"-. c #7E5D40",
";. c #425465",
":. c #445769",
">. c #465A6C",
",. c #485B6E",
"<. c #4E5762",
"1. c #505861",
"2. c #535D68",
"3. c #495E71",
"4. c #4D6175",
"5. c #4E6479",
"6. c #50667B",
"7. c #53687E",
"8. c #646364",
"9. c #676668",
"0. c #6A6A6C",
"q. c #6C6E72",
"w. c #6E7075",
"e. c #717377",
"r. c #815533",
"t. c #835835",
"y. c #845D3C",
"u. c #8B5E3A",
"i. c #885C37",
"p. c #846728",
"a. c #9F7D25",
"s. c #8D633D",
"d. c #93663F",
"f. c #956A3D",
"g. c #8E6541",
"h. c #866649",
"j. c #946741",
"k. c #966942",
"l. c #9C6D44",
"z. c #926F4F",
"x. c #957252",
"c. c #9A7655",
"v. c #A46E45",
"b. c #A27147",
"n. c #A47349",
"m. c #A5754A",
"M. c #A6754A",
"N. c #A67549",
"B. c #A57449",
"V. c #A9764B",
"C. c #AB784C",
"Z. c #AC794D",
"A. c #AC784D",
"S. c #B37D4F",
"D. c #A37B59",
"F. c #B77F52",
"G. c #B77F51",
"H. c #B87F52",
"J. c #C89D1E",
"K. c #A48A4A",
"L. c #B78052",
"P. c #BA8153",
"I. c #F1C747",
"U. c #576E85",
"Y. c #556C83",
"T. c #586F88",
"R. c #597289",
"E. c #5A748C",
"W. c #5D7790",
"Q. c #5F7993",
"!. c #7C7F84",
"~. c #617B95",
"^. c #82858B",
"/. c #85898E",
"(. c #898D93",
"). c #878B91",
"_. c #8D9095",
"`. c #8F9398",
"'. c #92969B",
"]. c #94989D",
"[. c #999CA2",
/* pixels */
"                                                                                                    ",
"                                                                                                    ",
"                                          = : : = 5 5 5 +                                           ",
"                                    + 7 8  .;.;.;.} | ` / 7 6 +                                     ",
"                              X ( ;.6.;.' 8 3.3.3. .6 '  .` Y.5._ &                                 ",
"                            8 - 5.~.,.{ 5.( ;.:.>.3.:.../ { Y.` :.;.( =                             ",
"                          ` ,. .;.W.Y.:.Y.;.5 5 7 '  .` { R.R.5.E.E. .' (                           ",
"                      @ | 3.3.,.8 ;.4.;.:.R.` ` ;.` | { 6.E.6.;.T. .7 X.>.* o                       ",
"                    o ' 3.3.3.3.X.5 ` |  .,. .5 | | } ` 3.' 8 ;.3.8 ;.:.,.( /                       ",
"                    * | 3.3.,.;.o.g % p j g r r g d r i g g r r B w  .{ 3.3.;.+                     ",
"                  * ;.' ` ,.} a K J y Q l.j.S Q l.j.J r.k.l.J J d.j.B _ 3.;._ 7 =                   ",
"                o  .>.4.( _ $ S t.s.S u.Z.M.J u.Z.M.P s.M.Z.r.Q M.P.u.3  .6 7 ;.;.                  ",
"                6 Y.R.Y.7.z t J v.n.S u.Z.M.J u.C.M.P u.M.C.Q Q M.G.u.D 0  .Y.E.5.:                 ",
"                | Q.4.:.%.p u t.G.n.S u.Z.M.J u.C.M.P u.M.C.Q Q M.G.u.J Y 4.5.4.R.8                 ",
"                { 3.,.{ 4 c y j.G.n.S u.Z.M.J u.C.M.P u.M.C.Q Q M.H.u.J g., / ` ,.8                 ",
"                & . . O $ S h l.G.n.S u.Z.M.J u.C.M.P u.M.C.Q Q M.H.u.J s.# & * & &                 ",
"              O 5 8 } { k S c l.G.n.S u.Z.M.J u.C.M.P u.M.C.r.Q M.L.u.J g.+.` ( ( } 5               ",
"              =  .R.Q.7.k S c l.G.n.S u.Z.M.J u.C.M.P u.M.C.r.Q M.L.u.J s.$.,.Y.4.5 X               ",
"              8 R.Q.Q.W.o.S c l.G.n.S u.Z.M.J u.C.M.P u.M.C.r.Q M.L.u.J s.<.~.Q.Q.7.6               ",
"              * ( ` ` ) 3 S c l.P.M.L u.Z.M.J u.Z.V.P s.M.Z.r.r.V.P.s.K g.0 ) ` ` ( *               ",
"              O 5 5 o * 1 f t ~ g.y.f F y.y.h F y.y.A F y.y.D D y.j.U h W < ; + = 5 O               ",
"              5 ;.` | { O.=.9.0.8.8.9.0.8.8.0.0.8.8.9.0.8.8.9.0.8.8.8.0.=._ ` 6 / :.5               ",
"              5 } - :.,.1.).(.].(.(._.].(.(.`.'.(.(.(.`.(.(./.'.(.(.).[.!.} ;.,.8 | 5               ",
"              5 :.;.,.,.q z z @.#.@.x o.@.@.M M @.@.M M @.@.M M @.#.o.M M ' 4.:.X.;.5               ",
"              * ) { ' ` 3 c y d.C.k.c r.b.l.S r.b.l.J t.l.b.K K l.C.t.S y.e ' ' ' ` *               ",
"              :  . .,.>.k S c l.H.n.H u.Z.M.J u.Z.M.P u.M.C.r.Q M.G.Q D s.O.,.:.;.;.5               ",
"              : { 4.~.W.o.S c l.G.n.S u.Z.M.J u.C.M.P u.M.C.r.Q M.M.a.K.^ <.~.3.{  .5               ",
"              7 Y.W.Q.E.o.S c l.G.n.S u.Z.M.J u.C.M.P u.M.C.r.Q k.G J.I.I *.Q.E.R.,.:               ",
"              7 Y.E.E.R.M S c l.G.n.S u.Z.M.J u.C.M.P u.M.C.Q r.k.G I p.p.&.E.E.E.Y.8               ",
"              * ( ) ) ( 3 S c l.G.n.S u.Z.M.J u.C.M.P u.M.C.Q Q M.f.b v m 9 ) ) ) ( *               ",
"              : X.:.:.;.k S c l.G.n.S u.Z.M.J u.C.M.P u.M.C.Q Q M.G.F A y.] :.:.:.X.:               ",
"              * ' ;.;.;.k S c l.G.n.S u.C.M.J u.C.M.P u.M.C.Q Q M.H.s.J s.O.4.3.3. .=               ",
"              7 ' ` `  .k S c l.G.n.S u.C.M.J u.C.M.P u.M.C.Q Q M.G.u.J s.O.4.' { { *               ",
"              _ ,.,.,.,.k S c l.G.n.S u.Z.M.J u.C.M.P u.M.C.Q Q M.G.u.J s.O.3.,.>.:.5               ",
"              = ( ) ) ( 3 S y k.S.b.S u.V.b.J i.V.b.K u.b.V.Q Q n.G.u.J s.0 ) ) ) / *               ",
"              [ 4.6.7.5.q a a Z Y C s B C C l B C C l B C C l l C Y B l N q 5.4.6.3.6               ",
"              q  .3.R.E.2.^._.'.^.^._.'.^.^.'.[.^.^.(.[.^.^./.].^.^./.[.^.&.E.6.Y.7.7               ","              _ 3.4.E.E.&.q.q.w.w.w.q.w.w.w.q.e.w.w.q.e.w.w.0.w.w.w.q.w.q.$.E.R.' ;.-               ",
"              ` Y.Y.Y.Y.w p r U ~ U p n ! R d n ! R g n E ! j j R ~ n d V ] Y.Y.6.6.7               ",
"              , ( ( ( ( 3 S c l.P.M.H u.Z.V.J u.Z.V.P s.V.Z.r.r.V.P.s.J j.0 ( ( ( / *               ",
"              q :.X.X.>.k S c l.G.n.S u.C.M.J u.C.M.P u.M.C.Q Q M.G.u.J s.] ,.X.>.;.>               ",
"              8 :.'  .;.z S c l.G.n.S u.C.M.J u.C.M.P u.M.C.Q Q M.G.u.J s.O.;.{ ' ;.5               ",
"              > ;.;.,.>.k S c l.G.b.S u.C.M.J u.C.M.P u.M.C.Q Q M.G.u.J s.w ;.;. .;.>               ",
"                5 6 6 5 2 D g h.D.z.D -.c.x.U -.c.x.T -.x.c.W W x.D.-.U h., 6 6 7 5                 ",
"                                                                                                    ",
"                                                                                                    ",
"                                                                                                    ",
"                                                                                                    ",
"                                                                                                    ",
"                                                                                                    "
};
