/* XPM */
static char *result[] = {
/* columns rows colors chars-per-pixel */
"50 50 154 2 ",
"   c #160D08",
".  c #180F0A",
"X  c #1A110C",
"o  c #19120C",
"O  c #1A130D",
"+  c #1B140E",
"@  c #1D140F",
"#  c #1C150F",
"$  c #1B1610",
"%  c #1E1510",
"&  c #1D1610",
"*  c #1F1611",
"=  c #1E1711",
"-  c #1F1812",
";  c #1F1A16",
":  c #211610",
">  c #201712",
",  c #221713",
"<  c #201614",
"1  c #211715",
"2  c #211813",
"3  c #201913",
"4  c #231814",
"5  c #221914",
"6  c #211A14",
"7  c #231A15",
"8  c #221B15",
"9  c #201B17",
"0  c #261B15",
"q  c #241B16",
"w  c #261B17",
"e  c #231C16",
"r  c #251C17",
"t  c #241D17",
"y  c #221D19",
"u  c #221F18",
"i  c #231E1A",
"p  c #271C18",
"a  c #261D18",
"s  c #251E18",
"d  c #271E19",
"f  c #261F19",
"g  c #271F1C",
"h  c #281D19",
"j  c #281F18",
"k  c #2A1F19",
"l  c #291E1A",
"z  c #281F1A",
"x  c #25201A",
"c  c #27201A",
"v  c #27231A",
"b  c #292019",
"n  c #29201B",
"m  c #28211B",
"M  c #28201D",
"N  c #2B201C",
"B  c #2A211C",
"V  c #29221C",
"C  c #2B221D",
"Z  c #2A231D",
"A  c #29211E",
"S  c #2A201E",
"D  c #2A221F",
"F  c #2C211D",
"G  c #2C231C",
"H  c #2E231D",
"J  c #2C211F",
"K  c #2D221E",
"L  c #2C231E",
"P  c #2E231F",
"I  c #2B241E",
"U  c #2D241F",
"Y  c #2C251F",
"T  c #2E251E",
"R  c #2F261F",
"E  c #30251F",
"W  c #2B2320",
"Q  c #292420",
"!  c #2A2521",
"~  c #2B2622",
"^  c #2C2421",
"/  c #2F2420",
"(  c #2E2520",
")  c #2D2620",
"_  c #2F2621",
"`  c #2E2721",
"'  c #2D2522",
"]  c #2E2623",
"[  c #2C2922",
"{  c #2F2822",
"}  c #2D2824",
"|  c #2C2924",
" . c #312320",
".. c #302521",
"X. c #312620",
"o. c #302720",
"O. c #322721",
"+. c #312622",
"@. c #302722",
"#. c #322723",
"$. c #312821",
"%. c #302921",
"&. c #312823",
"*. c #302923",
"=. c #332822",
"-. c #322922",
";. c #332A23",
":. c #342923",
">. c #302C23",
",. c #302825",
"<. c #332824",
"1. c #322924",
"2. c #312A24",
"3. c #332A25",
"4. c #322B25",
"5. c #342925",
"6. c #342B24",
"7. c #342927",
"8. c #352A26",
"9. c #342B26",
"0. c #362B27",
"q. c #332C26",
"w. c #352C25",
"e. c #352C27",
"r. c #342D27",
"t. c #372C26",
"y. c #342A28",
"u. c #332E2A",
"i. c #372C28",
"p. c #362D28",
"a. c #352E28",
"s. c #372E29",
"d. c #362F29",
"f. c #382D29",
"g. c #3A2F29",
"h. c #392E2A",
"j. c #382F2A",
"k. c #3A2F2B",
"l. c #37302A",
"z. c #393029",
"x. c #383129",
"c. c #39302B",
"v. c #38312B",
"b. c #3A312C",
"n. c #39322C",
"m. c #3B322D",
"M. c #3A332D",
"N. c #3C312D",
"B. c #3C332E",
"V. c #3B342E",
"C. c #3D342F",
"Z. c #3C352F",
"A. c #3E3530",
"S. c #403732",
/* pixels */
"& Z e e 3 t e q.{ *.{ *.Z { n.V s.B.S.r q 7 d _ z 7 . d a ( 3.@.U % 7 7 z a L > n a r a q > > r J 7.",
"{ V.a.v.d.a.Z q.{ 2.*.{ m Y d.m 9._ &.r e.b.j.s.9.1.z 9.B U &.( 7 n b.3.e.s.C.B j.e.p.c.s.&.@.9.1 S ",
"V 4.I { { ) & 6 - e s c - t *.e 1.U 1.z 9.1.U _ @.1.C 9.r q d a r L b.&.3.3.p.r 3.@.@.3.&.U ( 1.< g ",
"4.n.` 2.4.a.Z 4.s Y *.q.Z ` n.Y 1.( e.U e.( C &.z L z p.U 1.c.b.@.r r 5 C a d > 3._ U ( U L _ e.^ u.",
"I r.V Z Z { Z l.c ` 4.q.m m { 3 d % 7 > 9.9.@.3.3.1.n e.L _ 9.1.( a a 7 &.U ( C s.3.1.3.&.( _ q.x [ ",
"I l.*.4.{ 2.Z l.I 2.a.l.) ` a.s s.1.p.B e.3.&.e.@.L * n > 5 q * 5 &.c.U s.p.e.L @._ @.3.@.z r s $ u ",
"f q.` 2.) Y 6 I - e s m e m q.t @.&.p.2 5 % @ 2 q q @ ( B &.p.3.q 9.c.C e.&.( d 1.@.&.3.&.C n I v >.",
"m r.` 2.` ) 3 m m V m Z s Y l.V 1._ &.q e.C.j.3.e.p._ B.3.e.p.3.1.( z 5 9.U B L e.@.( _ _ ( 1.j.%.x.",
"f 2.r.2.V q.Y n.d.d.r.n.d.2.4.f 3.&.&.B e.( 1.9.&.3.L @.&.( 3.@.a > r 2 r 2 d * @.@.s.@.&.n 1.j.G G ",
"` ` ) 4.{ 4.t ` m { ` Y - O e = p.3.&.B e.U U L _ @.B @.1.@.e.1.@.( j.e.b.p.j.L 9.( &.U 9.C ( C X.X.",
"q.{ ) a.4.4.s r.` 4.{ *.` 4.n.) &._ ( B c.9.e.3.U L d ( 3.@.9.@.d B e.@.9.1.3.q p.@.3._ p._ 1.@./  .",
"e f m I e f 6 d.` *.I Y Y { { + q q a > _ ( 1.&.1.@.B 1.p.&.9.&.z B 9.C ( ( &.7 z d ( d n 7 ( e.#.#.",
"3 V Y Z 8 Z e 4.Y a.a.r.Y Y q.V j.b.c.U p.1.p.e.3.@.B 3.p.@.9.3.L ( j.&.3.1.s.C z z ( z n 2 L 1.y.y.",
"{ a.r.4.` l.c I t s 6 s s m 4.I 1.3.&.5 B r d q z a > B L a L ( r a 3.@.3._ 3.B s.&.9._ e.L U B M M ",
"2.2.) ) V ` 6 Z n.) 6 c V c V - L U C 5 @._ U a z a 2 B B 5 C @.n q _ _ &.z ( B p._ _ n _ d B m y y ",
"2.{ I Y e s e Z.q.` I q.) t V c d d a 2 p.s.3.d j.p.@.s.e.L e.B.( q B d z % d z 9.@.&.d z 7 1.M.} | ",
"L 3.1.U d &.z @._ 9.r e.a s.c.j.n.4.M.Y _ @.( 7 3.@.B 3.#.l / <.z 3.p.j.3.3.b.( _ p.1.7 @.( _ _ W Q ",
"C e.9._ C j._ e.z @.r p.d 3.&.U { V 4.c _ 3.3.L s.&.d L F w ..0.B &.&.@.B L 9.B &.e.3.d 1.U _ 1.D D ",
"n 1.&.U n p.U 3.3.c._ m.C 1._ B a.` q.t n z r * 7 r d p.k.#.8.8.B &.&.@.B L 9.n &.&.1.B 1.n U 3.Y Y ",
"L U L U n ( 7 _ a C 7 U q _ e.3.` Z { 8 L L B B _ L q n l , h l a _ 1.9._ @.e.z _ C _ C @.q B 1.s s ",
"n 5 > B r 5   n B U a C 7 B 9.&.) Y 2.f 9.3.&.s.p.1.z C F w F F r ( @.1.( _ 9.a r % q q a X 2 d L L ",
"c.@.( m.c.e.n A.s.b.p.j._ U 9.( a.a.l.m e._ z @.L ( L p.N.i.k.0.L 1.@._ C U 3.d j.( s.s.s.U p.p.e.e.",
"U B n &.@.3.d e.z U _ 1.( L 9.U f Z ) 8 9._ n 9.p.3.z n F N #.+._ 9.&.&.U _ e.z 1.z 1.&.&.C 3.( _ _ ",
"( 1.&.1.&.b.( e.@.3.&.( a * d % 6 s Z 3 9._ n p.( @.U 9.f.<.5.K z @.@.3.@.&.e.a 9.B 9.1.3._ s.( _ _ ",
"( L z 1.B C B 9.1.@.1.3.&.p.c.e.I n.v.m e.U ( p.@.9.L c.<.+.#.8.r q C 2 2 % a % e.d C L &.B 1.1.$.$.",
"j.@.7 n 5 a d 1.&.( ( U n U @.L f 4.*.= B 7 5 a a d % ( K ..#.8.C U c.9.p.1.p.C e.r d a C r @.1.o.o.",
"B B B b.p.1.r a 5 2 q r r U 3.&.c 4.4.8 @.( _ _ 9.&.2 C p w 4 4 r z e.1.e.&.9.z ( d 9.b.m.B a @ : : ",
"s.&.n 1.U @.( p.b.s.j.9.U ( @.C c *.2.s 9.p.c.e.&.&.d e.5.0.f.h.C C 9.U @.( 3.n s.n U L @.C s.b.t.t.",
"U ( U c.&.( z ( L U 1.3._ 3.p.1.` 2.4.c &.&.9.( 1.9.C j.+./ / +.1._ p.( @._ e.L @.d @.1.e.C 1.1.E E ",
"U C a @.n U ( m.&.@.1.( r 7 7 % e 3 8 # 7 @ 5 * * r > &.P ..<.f.C B 3.U &._ 3.d p.B @._ @.d @.1.H H ",
"2 q n B.j.e.L @.U ( 1.&.L _ e.3.r.Z *.*.e.L 9.e.j.c.( c.<.../ +.L C e.@.e.1.9.d * @ _ c.A.&.9.@.=.=.",
"b.&.q C a C B 3.1.&.3.@.B ( e.e.q.f ) { 1.a ( 1.1.&.q 1.@.1.<.3.U C 1.L @.( &.r C.( U a a > _ e.=.=.",
"{ Y 6 Z m Z m v.a.4.l.a.Y 2.r.V 4.f ) f *.` { 4.{ { ) 2.l.r.&.r.V ) 2.` *.I d.V 4.c t I ` V I 9.t.=.",
"4.{ m d.l.4.3 8 t = 8 t 6 I d.4.Z 3 m 3 f 8 e c t e 3 8 m s 8 c e m *.*.q.) a.f 4.I I q.4.m s I j 0 ",
"{ ` c q.r.4.f Y l.Y ) ` c Z q.2.{ m 2.c I c c I ) I m Z { I V *.f Z 2.*.r.` a.s ` I ` a.q.m f Y U B ",
"3 s 3 c 8 s f l.r.Z { d.{ ` q.2.{ V r.) d.a.l.n.2.{ ) *.a.{ ) a.` ` *.Y *.I r.s I V I 2.{ Z ` v.&.U ",
"s ` Y q.Y Z f q.` s Y a.` Y { I a.I *.f ` Y m s ` Y I *.r.) I r.6 8 t 3 8 & c o 8 3 8 s e 3 f 2.,.' ",
"a.v.2.v.d.d.I { a.Y { 2.c s m 8 6 o 8 = *.l.v.a.` Y Z *.q.I V r.Z { d.r.d.{ v.Z a.a.l.v.r.` *.d.] D ",
"{ *.f Y I { f Z s 3 s c 6 c ) s V.4.a.m *.*.) m ` V s V Z 8 8 *.e Z 4.{ { m q.c *.{ 2.2.Y s t m y ; ",
"V q.*.a.{ ` f ) t e I ) m *.a.Z 4.) r.m *.r.a.r.r.) f m V 6 e 4.V ` q.) I t q.Z 4.*.*.*.Y m m Y i 9 ",
"{ q.{ ) 2.I Z v.Y 4.r.d.{ Y 4.V 4.2.{ 3 s f Z 3 8 t ` 4.l.s r.M.2.V 4.a.I - ` e a.) { Y r.) q.r.~ ~ ",
"c { { 2.a.` Y n.f ` { { Z Z 4.m r.4.4.f *.2.4.f { I Y { d.s ` ` Z V r.q.` V M.Z d.2.a.*.a.I 4.a.! ! ",
"{ d.r.q.a.I c q.c 2.4.2.I ) r.f 6 3 t 3 2.a.l.Z ` I V Y 2.s ` { c I q.) Z m l.e = + 8 - e O 8 c A A ",
"8 s 3 8 I V m r.t 2.q.4.Y ) *.- *.) { m q.2.*.t { *.` 4.2.V r.n.` 2.a.*.{ Z a.s 2.` a.4.l.` r.v.^ ^ ",
"I Z 6 e { ) m *.m 4.q.r.*.q.v.m l.r.a.Y q.{ { c *.{ f Y Z s V Z - & 3 8 m = m 3 d.{ 4.` 4.c V V z z ",
"Z.M.*.*.v.*.t c & 6 3 e 8 f { f I V ) c { ) 4.) 2.Y # c V I f = Y Z Z ` v.Y q.` a.Y ` Z { s c c L L ",
"Z Y f V q.` f ) *.*.` r.2.` r.) l.4.q.I q.` { m r.r.c a.r.l.4.) ) *.) Y l.) 2.V q.) 2.) q.Z *.q.z.g.",
"Y { V V *.Y Z d.4.*.{ l.2.t e O 4.Y ) V a.4.2.c V q.) v.Y Y Y { c *.) f q.*.q.f r.{ r.` 2.c @.e.E E ",
"-.;.b R 6.T o.;.@.@.@.&.C ( e.7 3.s.( z c.@.@.B 3.( z 9.1.3.z d 3 I 4.V 9.1.9.@.w.o.6.R ;.b X.:.O.O.",
"-.;.b R 6.T o.;.@.@.@.&.C ( e.7 5 z 5 > p.@.9._ 3.( z 9.1.3.z d t ) 2.t C q 7 % w.o.6.R :.k X.:.O.O."
};
