/* XPM */
static char *ac949f82819d4867bbdf7649e2c51a791CER4I832c0CJL7f[] = {
/* columns rows colors chars-per-pixel */
"50 50 194 2 ",
"   c None",
".  c #120D0D",
"X  c #15100F",
"o  c #1C140F",
"O  c #170F10",
"+  c #171010",
"@  c #1B1513",
"#  c #1E1816",
"$  c #1E1A19",
"%  c #2C130F",
"&  c #201713",
"*  c #211917",
"=  c #2B1C15",
"-  c #241D1B",
";  c #2A1D1C",
":  c #301815",
">  c #381F1C",
",  c #25211E",
"<  c #2B211E",
"1  c #32231E",
"2  c #3B231E",
"3  c #3B291E",
"4  c #1B1E23",
"5  c #1F2229",
"6  c #1F2227",
"7  c #262222",
"8  c #2B2422",
"9  c #2D2927",
"0  c #22252C",
"q  c #25292F",
"w  c #2D2A2A",
"e  c #332522",
"r  c #3A2521",
"t  c #332926",
"y  c #3A2B24",
"u  c #3F2528",
"i  c #332C2B",
"p  c #3B2E2A",
"a  c #3C302C",
"s  c #262A31",
"d  c #2A2D34",
"f  c #322E31",
"g  c #2C3239",
"h  c #353233",
"j  c #3A3434",
"k  c #3D3936",
"l  c #39373B",
"z  c #36343A",
"x  c #411817",
"c  c #471E1C",
"v  c #41271F",
"b  c #4E201E",
"n  c #4A2B1F",
"m  c #533F1F",
"M  c #432C24",
"N  c #442E2A",
"B  c #4B2E2A",
"V  c #452625",
"C  c #5C2B2A",
"Z  c #552B28",
"A  c #453124",
"S  c #4B3325",
"D  c #43342C",
"F  c #4A352C",
"G  c #46392E",
"H  c #4E3B2B",
"J  c #583727",
"K  c #51332B",
"L  c #513C2C",
"P  c #59362C",
"I  c #423532",
"U  c #4B3733",
"Y  c #453A35",
"T  c #4B3B33",
"R  c #433B3A",
"E  c #4E3C3B",
"W  c #523533",
"Q  c #5D3633",
"!  c #503835",
"~  c #5A3F37",
"^  c #642F2D",
"/  c #633935",
"(  c #6A3A36",
")  c #653C3A",
"_  c #6C3E3A",
"`  c #743E3C",
"'  c #56422C",
"]  c #5D482F",
"[  c #4C4037",
"{  c #45403E",
"}  c #4F433B",
"|  c #4E483A",
" . c #554136",
".. c #5C4535",
"X. c #54443C",
"o. c #5A463B",
"O. c #5B4B3E",
"+. c #6D433E",
"@. c #654D3A",
"#. c #77433E",
"$. c #72483F",
"%. c #68513F",
"&. c #464444",
"*. c #4A4343",
"=. c #4B4946",
"-. c #4C4A4B",
";. c #444649",
":. c #554944",
">. c #5C4B43",
",. c #534E4D",
"<. c #584E48",
"1. c #584440",
"2. c #4D4E52",
"3. c #5B5351",
"4. c #5E5A5A",
"5. c #694C46",
"6. c #754343",
"7. c #784846",
"8. c #635246",
"9. c #63534B",
"0. c #69554C",
"q. c #6B584D",
"w. c #7E594F",
"e. c #675450",
"r. c #6C5B54",
"t. c #6F5F59",
"y. c #6F5753",
"u. c #735C53",
"i. c #706151",
"p. c #78645A",
"a. c #636467",
"s. c #7D6B64",
"d. c #736763",
"f. c #844E48",
"g. c #97514B",
"h. c #835B56",
"j. c #955A54",
"k. c #89655E",
"l. c #99665D",
"z. c #AB635B",
"x. c #836E66",
"c. c #9F6960",
"v. c #8C736B",
"b. c #837069",
"n. c #96736B",
"m. c #917A6F",
"M. c #98766D",
"N. c #8A7870",
"B. c #947D75",
"V. c #9B7B74",
"C. c #A76D65",
"Z. c #B36C66",
"A. c #AB756D",
"S. c #B5746D",
"D. c #AE7D74",
"F. c #B77A72",
"G. c #9B847C",
"H. c #95827A",
"J. c #A5867E",
"K. c #B6847A",
"L. c #9C8B81",
"P. c #A38F85",
"I. c #AB9287",
"U. c #AD968C",
"Y. c #A69288",
"T. c #B59288",
"R. c #BD948A",
"E. c #B2998F",
"W. c #BC9A8F",
"Q. c #B49D94",
"!. c #B89F94",
"~. c #B7A096",
"^. c #BDA097",
"/. c #BCA59A",
"(. c #B6A29B",
"). c #BAA6A0",
"_. c #C3978E",
"`. c #C09E95",
"'. c #C4A49D",
"]. c #CCA69D",
"[. c #C4ADA6",
"{. c #C8AEA4",
"}. c #D3ABA4",
"|. c #C6B0A6",
" X c #CEB2A8",
".X c #C8B1A8",
"XX c #D2B4AD",
"oX c #CEB9B0",
"OX c #D1B7B0",
"+X c #D4BBB4",
"@X c #D9BFB7",
"#X c #D8C0B6",
"$X c #D8C2BA",
"%X c #DEC8C0",
/* pixels */
"                                                                                                    ",
"                                                                                                    ",
"                                                    +X$X}.Z.R.                                      ",
"                                                  (..X'.F.D.~.).                                    ",
"                                                  9.b.J.h.5.B.G.H.                                  ",
"                                                  0.x.U.L.n.n.9.                                    ",
"                                                  p X.9.>.9.>.p X.                                  ",
"                                                  e t I T y y X.U._.Z.                              ",
"                                              B u U 1.p D D >.V.D.c.A.].@X@X                        ",
"                                        M S S T V N y.0.r.v.A.S.K.T.^.+X+XXX].C.                    ",
"                                      S M A F F A 2 r 1.M.A.F.].+XOX{. X X.XR.z.                    ",
"                                      3 3 M A A A S M y V Q k./.@X[.H./.+X$XW.g.`                   ",
"                                        = r N N M M S K T G F o.p.8.r.[.oXOXW.l.j.                  ",
"                                        o y 0.u.5.! N M F F S F S S u.oX%X+X{.+XXX`.                ",
"                                          X.t.N.U.U.v.v.x.5.) K V r U Y.+X X'.+X@XOX                ",
"                                            s.L.Q.!.U.E./.T.C.j.#.( M G x.I.{.@X#X|.                ",
"                                          m.8.r.P.I.E.Q.U.U.G.w.$.+.~ j { 3.d.G.!.U.                ",
"                    0                 >.>.>.A G 0.m.B.p.q.8. .G F G &.-.,.,.;.=.<.s.                ",
"                5 4 4               >.0.i.O.y < e T T m S S S D Y &.-.,.,.-.-.&.R                   ",
"              d 0 7 7 j >.    1.8.8.8.[ o.L p t e } X.L ' ] ] | ;.-.-.=.:.R j 8                     ",
"            0 6       r.x.5.K ~  .o.O.D   M a Y p Y T G D Y { ,.3.,.=.=.k , o &                     ",
"          q 0 4         :.D 2 v v M M 2 y t i i y t y t k &.2.a.4.} Y a = : % = '                   ",
"        0 0 5 4                           8 e ; ; 1 y D X.0.r.0. .G p 2 c b x 2 ..@.@.              ",
"      g s q s s d                         y y 8 < p D I Y X.>.L J P B Z C ^ C n ..0.%...            ",
"                                          M y 9 t G N N p r y 2 M K ) 6.+.` ( Z S H L L             ",
"                                        C P a 9 a T G p 1 1 y y B / 6.7.7.6.#.Q 2 1 y               ",
"                                        ^ / G t i a a y 1 r N W W 7._ W E W ( 6.;                   ",
"                                        V / U t i p T D y 1 r B K f.W 8 h h N ( e                   ",
"                                        ; F D p a e T T p r > r N Q p f f f i < *                   ",
"                                      # ; , < y E y D T T         O X 7 f z l f , @                 ",
"                                      * , ; * ; a a p p             . @ * 7 w w , @                 ",
"                                    @ # , ; - @ @ ; *                 @ * , i i , @                 ",
"                                    < t 8 , # @ + .                   . # ; i R p e                 ",
"                                    < y y t < - @                       @ * 8 p D y ;               ",
"                                    ; e e e < ; *                         & ; t a p <               ",
"                                    @ * ; ; ; , , ;                       @ ; < i i 7 $             ",
"                                      # - , 8 i i 7                         - 7 w w w 8             ",
"                                      - 7 t i i 9 7                         7 9 i j j p e           ",
"                                        - 7 8 8 7 ;                         * 8 i j i i 8           ",
"                                        7 , , , , ;                           $ 7 9 w i 9           ",
"                                        7 8 t i t <                           ; 8 j *.I 8           ",
"                                          7 9 t t 8                             ; 9 j h 8           ",
"                                          t i a p t                             $ 7 i j t           ",
"                                          i l h i w 9                           ; 9 j R i           ",
"                                      8 9 9 w i i w 8                           $ , 9 i 8           ",
"                                - w i i i 8 7 7 7 7 ;                           $ - 9 9 8 ;         ",
"                                                                                # - 8 9 9 8 7       ",
"                                                                                  $ - , 8 8 ,       ",
"                                                                                                    ",
"                                                                                                    "
};
