/* XPM */
static char *_04b58e658d5489fa0dbf7324efe3824PGTQwqQDDfu4fUy2[] = {
/* columns rows colors chars-per-pixel */
"50 50 198 2 ",
"   c #1F2537",
".  c #202437",
"X  c #20273A",
"o  c #232A3D",
"O  c #1E2E44",
"+  c #1F324A",
"@  c #1D3E57",
"#  c #252D42",
"$  c #292F44",
"%  c #263145",
"&  c #2B3245",
"*  c #24344B",
"=  c #2B354B",
"-  c #24384D",
";  c #2C384E",
":  c #303547",
">  c #313649",
",  c #34394D",
"<  c #243750",
"1  c #2C3751",
"2  c #243B54",
"3  c #2D3B54",
"4  c #253E5A",
"5  c #2C3E5A",
"6  c #323751",
"7  c #333B53",
"8  c #393E54",
"9  c #343E5A",
"0  c #393E5B",
"q  c #2E4157",
"w  c #27445E",
"e  c #2C415D",
"r  c #324056",
"t  c #3B4057",
"y  c #33415D",
"u  c #3A415C",
"i  c #1F4E70",
"p  c #1F567A",
"a  c #244463",
"s  c #2D4462",
"d  c #264A64",
"f  c #2A4C66",
"g  c #274A6C",
"h  c #2B4B6C",
"j  c #344463",
"k  c #3C4463",
"l  c #354966",
"z  c #3A4965",
"x  c #3C4768",
"c  c #344A6A",
"v  c #3B4B6B",
"b  c #245167",
"n  c #30546F",
"m  c #244F73",
"M  c #2B4E71",
"N  c #354F71",
"B  c #3C4F71",
"V  c #245075",
"C  c #2D5373",
"Z  c #285979",
"A  c #2C5C7B",
"S  c #345273",
"D  c #3D5274",
"F  c #345B76",
"G  c #385A76",
"H  c #33567A",
"J  c #3C567A",
"K  c #355A7C",
"L  c #3C5A7D",
"P  c #27627D",
"I  c #2B627B",
"U  c #34627C",
"Y  c #454958",
"T  c #4A4F5E",
"R  c #424665",
"E  c #444966",
"W  c #434768",
"Q  c #454A6B",
"!  c #494D6E",
"~  c #42506F",
"^  c #4B516E",
"/  c #434E71",
"(  c #4A4F71",
")  c #435275",
"_  c #4C5274",
"`  c #445579",
"'  c #4E557A",
"]  c #455A7D",
"[  c #4C5A7E",
"{  c #505475",
"}  c #565A75",
"|  c #52567C",
" . c #53597E",
".. c #5A5E7B",
"X. c #59627D",
"o. c #2B5C82",
"O. c #2E5F88",
"+. c #345D83",
"@. c #3C5D82",
"#. c #305F88",
"$. c #276781",
"%. c #2B6482",
"&. c #2D6B86",
"*. c #2F638A",
"=. c #326286",
"-. c #3C6582",
";. c #326389",
":. c #3C658C",
">. c #3E6A8C",
",. c #32728F",
"<. c #2D6792",
"1. c #386890",
"2. c #3E6B93",
"3. c #297C99",
"4. c #3E7593",
"5. c #327B97",
"6. c #3C7996",
"7. c #3D7199",
"8. c #337D9A",
"9. c #3E7C9B",
"0. c #377CA1",
"q. c #435C82",
"w. c #4A5D83",
"e. c #535B82",
"r. c #466186",
"t. c #4C6186",
"y. c #42648A",
"u. c #4C6489",
"i. c #446B8D",
"p. c #4D6A8B",
"a. c #546185",
"s. c #5A6184",
"d. c #54648B",
"f. c #5A658D",
"g. c #50698F",
"h. c #436991",
"j. c #576690",
"k. c #5D6692",
"l. c #556A92",
"z. c #5D6A93",
"x. c #487698",
"c. c #517E9C",
"v. c #616583",
"b. c #616B95",
"n. c #646F9B",
"m. c #66719D",
"M. c #69739E",
"N. c #6F799F",
"B. c #577BA2",
"V. c #5B7DA7",
"C. c #6576A1",
"Z. c #6B75A2",
"A. c #637AA2",
"S. c #6D7AA5",
"D. c #627FAA",
"F. c #6C7EAA",
"G. c #717CA5",
"H. c #737EA9",
"J. c #2887A3",
"K. c #3783A0",
"L. c #3C84A4",
"P. c #368EAC",
"I. c #3698B8",
"U. c #4485A4",
"Y. c #4F80A1",
"T. c #4F86A8",
"R. c #5983A8",
"E. c #5A87AC",
"W. c #5589AD",
"Q. c #588AAD",
"!. c #4C8EB6",
"~. c #548DB3",
"^. c #5B8CB4",
"/. c #4B93B6",
"(. c #4F97B8",
"). c #4F9BBF",
"_. c #5393B4",
"`. c #5F98BE",
"'. c #6C84AD",
"]. c #6789AF",
"[. c #7582AD",
"{. c #7984AE",
"}. c #648DB6",
"|. c #6B8BB4",
" X c #7B86B1",
".X c #778BB5",
"XX c #7888B2",
"oX c #6192B7",
"OX c #6296BC",
"+X c #6C98BF",
"@X c #7290B8",
"#X c #3FA0C1",
"$X c #5C9EC2",
"%X c #609AC1",
"&X c #42A1C3",
"*X c #42B1CF",
"=X c #40AFD3",
"-X c #60A7CA",
/* pixels */
"a.e.s.) _ | | { _ x x ) D K x ! ! k y ) D D D D S S Z = $ o o o o # # & l v D D D x _ ! ) c.I.&.) [ ",
" . . .D k ) ) ) B 9 R _ _ ` v _ ! k x ' ( Q Q Q Q Q O.- # # # o # $ $ = k ' | | [ k _ _ ) M.%X8.Q _ ",
"| _ / x x ] q.L S e 9 x x l j x k 7 E  .| Q Q ( ! Q H + o o X X o % & & R | | | [ y 7 y j M.+XL._ _ ",
"v D N S 5 6 6 6 > ; l c s 4 s N c s x _ | | ! Q ! Q H O     X . X # # # R ( ' | [ y ; y j m.|.5.l c ",
"_  . .w.e # & & $ ; y y 3 q s l / c 7 Q _ ' Q Q ! Q c < w f d b 2 # * * 5 c c c c 3 8 t y f.D.9._ ] ",
"( | | [ 5 & = $ & 8 8 , > 8 t l Q x 9 Q ( ( ! ! Q Q c d.'.|.|.$X5.k ] J @.:.:.i.7.%.6 8 6 f.'.4.x x ",
"c c k x 3 ; - * % 7 t 8 , 8 t j ! ) 5 9 9 y y y y 9 9 n.{. X X.X9.! | | | |  . .e.=.; > 3 f.F.>.x c ",
"R.U.D ` l ) ` ` 3 7 8 7 , , 8 y Q Q 1 y v v c S S C h b.[. X X.X6.! _ ! Q _  .| ' K 3 > = e.C.] Q ) ",
"G.Q.[ _ x ' |  .j 7 , , > > , 3 R x y _ _ Q Q Q ! _ S f.H.[.{.'.>.u Q Q Q ! ! ( _ B % % - D u.S l l ",
"S.Q.] [ ) | |  .l 8 8 , > > > ; R x k _ Q Q Q Q ! ! v a.Z.Z.G.[.i.9 k R E R R x k 9 a S T.W._._./.P.",
"N.E.] [ ) | |  .c j 7 & & = ; * 1 & 7 Q Q Q Q Q ( ! ~ [ S.S.{.{.p.5 c l j j l h g a S u.{. X X X X$X",
"N.E.) _ ) _ ( _ D ) M l D L K H o.p 9 Q ! ! ! ! ! ! Q j ) B D ] l u ! E E ! ! Q ` ;.] u. X X X X XoX",
"' ) 3 9 y j y y 5 j j [ e. ._ ( _ <.5 W E R R R R R x e H H H ;.A k Q ! ( _ ( ! _ J v ) H.{.{.{.{.'.",
"v D l y v B ) v v B v | | | | _ ! #.4 c c s 1 s h h 4 7 Q Q ( _ S 3 9 k Q E x k k y 3 e D w.w.w.t.] ",
"R ! x 5 5 v D D D c l _ _ ! { | | @.v  . .] l Q B D S u Q Q _ | l y B S N H H H m 4 j v D ` ) ) ) v ",
"R Q y 9 ! ! ' | | _ l G U U K v k j 9 x x l e u u R j 9 k R Q R y E | _ _ ' ' _ ) s x ) ) ] ` v B c ",
"Q ( 9 y 9 l S S S s x ].^.~.!.P.P s y v D H H s 5 * * * - 3 2 - # 6 k R R u 0 0 0 1 u R R ! Q R Q j ",
"x v 3 9 l @.>.2.:.#.:.G.M.Z.n.C./.3.9 k j y y 5 3 3 3 3 r q w w @ * < < 5 5 < * e 5 l c l 9 3 5 2 # ",
"~ ) c 1 E Q _ | | / 1.m.n.n.n.n.m.&XF x c S h N d > > > > > > > 2 9 Q v c s 5 9 ' ( [ e.' c - e l l ",
"Q Q Q y Q Q Q _ _ Q @.n.m.n.m.S.S.(.-.Q Q Q c E c = > > > > > > 2 0 ! Q ! / B l _ ! _ _ ! k ; E Q Q ",
"( Q ! l E Q ! _ _ Q D Z.S.n.m.S.S.E.G W ! _ c Q c ; > > > > > > - u Q Q Q ( ' x Q Q Q Q Q x 9 _ Q Q ",
"_ ! Q l R Q ! _ _ E v z.n.b.b.b.b.l.x ( Q ! l Q x = > > > > > > ; u Q Q Q Q ! c 9 k u u 0 7 u ' _ Q ",
"( Q Q j E ( ! ( ( ( y y c c D S S h 9 ( Q R u ! j & > > > > , , ; u Q Q Q Q Q v l N H K g 3 k ( ' _ ",
"Q Q Q 9 j v v B v v 5 / ) ) ) ` ` J e 7 6 > ; 7 ; o o o # $ & & # 0 Q Q Q Q Q Q x ' e.e.D x ! | ( ! ",
"k x j y v x x c l c 5 ( { ! ! _ _ ! 5   o o # ; ; 2 < 5 s c h M m 9 Q R R R R 6 3 l u u 3 c L H c s ",
"! [ [ ` v s y c x c j _ ( Q ! ! | ! 5 o o o # > > , 2 R ! ! Q ! +.2 6 l S U P Z D Y.U # o ) t.w.w.2.",
"Q _ _ ' _ x k ! Q Q v ( W R ( Q Q R ;   X   o & & & ; E Q Q Q Q / 2 ) B.V.V.}.`.i.S.(.2 = _ | | | t.",
"E _ _ ' _ x I &.A I I %.&.$.f g m V m m V V i - - < = R Q Q Q ! ! e e.m.n.n.H. XW.S.OXI $ Q _ ! _ ` ",
"u x k 9 9 l W.^.}.}.^.!.).=XJ.D ` ) D D D D +.g x Q l k Q E Q ( ! j a.m.n.m.H.{._.S.@XU # k Q Q Q Q ",
"7 y 7 r y j n.H.S.Z.n.Z.H.|.K.! _ ! ! Q Q Q / g R Q l k Q E Q Q Q j f.m.n.Z.{. X_.F..XG $ E _ ' ' _ ",
"8 t t t t x G.{.H.m.n.Z.[.'.U._ _ ! ( ! Q Q ! h k Q l u Q Q Q ! ! j f.m.n.m.G.{.Q.A.XXD $ y x v v v ",
"> 7 t t t z M.[.{.S.S.H.Z.S.U._ ! Q Q Q Q Q ! j u Q k u Q Q Q ( ( y e.n.n.n.m.Z.g.d.S.v # x D ' ' D ",
": > > 7 7 r z.S.[.H.S.S.M.Z.i.y j 9 9 9 y u 9 * 0 Q k u Q Q ! Q Q 9 c L L L ] q.h s j 5 1 5 j v c s ",
"> > , t 8 7 ` j.z.d.f.e.[ / 1 y v x x x v x v e 9 Q k u Q ! Q Q Q j x D D +.H @.:.1.S ) Q Q ) ` r.0.",
"> , 8 t t 7 x ] ` ) ` ) D x s k ! Q Q ^ ! Q Q l 9 Q k k Q Q Q Q Q l k Q ! ) c Q ( w.J | _ { ! '  .h.",
"> 7 > & & & 9 Q E x x Q W k 9 9 Q Q ! Q Q Q Q j 9 Q x k Q Q Q Q Q l R ! ( / j 9 k k e x x E k x E v ",
"D c l s w 6.9.6.x.,.s l f g a # $ & = 3 j j l 5 9 Q x k Q Q Q Q Q l R ! Q Q 4 s 7 y y y y q y D D D ",
" .' ( E ] [.F.S.S.^.S Q ! ) o.# X X o 7 x x E x 3 9 3 3 y y y j y 3 k Q W x 9 x t t t t t 7 Q  . . .",
"s...! / [ S.G.S.S.A.e j x k 5 % o # o ; j j j 3 x p.x.x.9.0.L.I.J.* 5 j s 4 3 x 6 7 6 7 7 ; E  .| | ",
"v.v._ / ) m.M.m.M.z.j x / v v x l l e 9 E E ! l _ S.[.H.Z.m.m.A.#XS / v B D N v D D H +.=.o.x |  .| ",
"_ ^ j y 3 u 0 9 9 7 0 Q ! _ ! Q Q Q x k Q ! _ x / m.[.{.Z.n.m.M.W.C j j s 5 s j _  . .e.e.q.3 0 0 k ",
"X.} / Q y o X X     7 Q ! ! Q Q Q Q x x ! ^ ! x ) Z.m.G.S.Z.Z.G.|.-.` ] @.*.] K / _ _ ( ! x ; & 1 ) ",
"..} Q Q 9 X X X     6 ! Q Q ! Q Q Q x x ! _ _ x x b.n.G.S.G.Z.S.C.) _ ( ' :. .L j S H +.A K A 3 !  .",
"} { Q E 3 X X X     > Q Q Q Q Q Q Q x k Q ! ! Q 5 9 k Q B ` ` ` B j ( Q ) L _ B x e.e.e.y.[ h.J | | ",
"..} E E 3   X X X X $ k E R Q Q R R 6 0 W Q Q _ c ) ) ) ) ' [ [ ] B | | [ D _ v x | | e.] ' r.J | | ",
"....Q k & X X X X X X * 5 4 3 s h e 2 f n S S S l | | | | | | | [ ) | | ' x ( k k | |  .D _ q.s x Q ",
"u z q e 4 X X X X X o = 3 w l Q r.;.B.~.^.oXoX*X8.| | | _ _ | | ' l j c s - s w 5 j k k 9 R D 2 1 1 ",
"Y T 7 v g # * - O X $ > > = u ! ' :.m.S.{.{.{.-X8.{ |  ._ Q _ | _ 3 7 y s d @.y.@.H D H M _ ] y t t ",
"Y T 7 k y B @.#.o.w = > > > k ( ' @.b.S.H.[.{.$X%._ | ' ! ! _ _ ! 3 > 8 > 5 (  . .) _ _ J ' ' 9 t t ",
", , = 1 E _ _ ! Q j & & : > t Q ! c [ k.k.z.b.x.w u x k k R E R R & $ & & = E ! Q k ! ! D E E ; > , "
};
