/* XPM */
static char *ac54423ea4284a89cb4f0a20e20e864dyfXOYAlYLcg2O8G6[] = {
/* columns rows colors chars-per-pixel */
"50 50 137 2 ",
"   c None",
".  c #110F15",
"X  c #161516",
"o  c #1C1A16",
"O  c #161718",
"+  c #171919",
"@  c #191D1A",
"#  c #231D16",
"$  c #1C231D",
"%  c #272016",
"&  c #2C2215",
"*  c #22231A",
"=  c #23291D",
"-  c #2E291A",
";  c #322614",
":  c #352915",
">  c #3A2B14",
",  c #372E18",
"<  c #2D341F",
"1  c #34371F",
"2  c #3D331E",
"3  c #393A1F",
"4  c #1A2620",
"5  c #1C2A22",
"6  c #1E3126",
"7  c #1F372A",
"8  c #1F3E30",
"9  c #232E21",
"0  c #243525",
"q  c #2B3221",
"w  c #223927",
"e  c #213D2D",
"r  c #2A3D29",
"t  c #203F30",
"y  c #422F13",
"u  c #443516",
"i  c #4B3613",
"p  c #4A3916",
"a  c #4B3C1D",
"s  c #533C14",
"d  c #533F1A",
"f  c #463B22",
"g  c #25412C",
"h  c #2E4129",
"j  c #2C4A2D",
"k  c #344125",
"l  c #394624",
"z  c #3A4825",
"x  c #33472A",
"c  c #354B2B",
"v  c #3B4F2A",
"b  c #3E582E",
"n  c #234330",
"m  c #264B33",
"M  c #294E33",
"N  c #295234",
"B  c #2E5A36",
"V  c #2E5E39",
"C  c #335D36",
"Z  c #32643B",
"A  c #3A643B",
"S  c #346B3D",
"D  c #3A6C3D",
"F  c #3C723F",
"G  c #564017",
"H  c #5A4316",
"J  c #5F4919",
"K  c #624C1C",
"L  c #66511D",
"P  c #69541F",
"I  c #544524",
"U  c #435429",
"Y  c #604E26",
"T  c #645024",
"R  c #6F5924",
"E  c #635229",
"W  c #6A572B",
"Q  c #735D25",
"!  c #735E2A",
"~  c #52682E",
"^  c #426335",
"/  c #4F6830",
"(  c #45743F",
")  c #4C723A",
"_  c #557A3B",
"`  c #7B642D",
"'  c #617C33",
"]  c #3F7540",
"[  c #437640",
"{  c #457B42",
"}  c #4A7E42",
"|  c #57843F",
" . c #5C823B",
".. c #668335",
"X. c #688737",
"o. c #74993D",
"O. c #4C8143",
"+. c #538644",
"@. c #568A45",
"#. c #598C46",
"$. c #5F9246",
"%. c #639546",
"&. c #699B47",
"*. c #6C9A44",
"=. c #699C47",
"-. c #6A9D47",
";. c #6C9E47",
":. c #70A146",
">. c #71A347",
",. c #71A447",
"<. c #74A747",
"1. c #7CA642",
"2. c #77A947",
"3. c #76A947",
"4. c #78AA47",
"5. c #7BAC47",
"6. c #7CAD47",
"7. c #71A448",
"8. c #74A849",
"9. c #77AA48",
"0. c #79AD49",
"q. c #7BAD48",
"w. c #78AD4A",
"e. c #7FB148",
"r. c #83AB41",
"t. c #81AF46",
"y. c #83B347",
"u. c #85B547",
"i. c #8BBA47",
"p. c #8DB945",
"a. c #82B348",
"s. c #90BE47",
"d. c #91BF46",
"f. c #93C247",
"g. c #97C548",
"h. c #9DCD4A",
"j. c #9DCE4A",
/* pixels */
"                                            . . . . . .                                             ",
"                                            @ @ @ @ @ @                                             ",
"                                          < k l z z l k <                                           ",
"                                        $ l ~ ' ....' ~ l *                                         ",
"                                      X = U X.r.p.p.r.X.U = X                                       ",
"                                    $ 9 k / o.s.j.j.s.o./ k 9 $                                     ",
"                                  $ 0 c ^  .1.f.j.j.f.1. .^ c 0 $                                   ",
"                                X $ h ^ +.*.t.s.g.g.s.t.*.+.^ h $ X                                 ",
"                                X $ x ) %.9.a.i.s.s.i.a.9.%.) x $ X                                 ",
"                                X * c _ ;.q.e.y.u.u.y.e.q.;._ c * X                                 ",
"                                X = v  .:.q.q.5.6.6.5.q.q.:. .v = X                                 ",
"                              + $ 0 b  .:.9.9.2.2.2.2.9.9.:. .b 0 $ +                               ",
"                            @ 5 w j ^ | &.7.<.2.4.4.2.<.7.&.| ^ j w 5 @                             ",
"                          X $ 0 M Z ( +.$.=.:.2.4.4.2.:.=.$.+.( Z M 0 $ X                           ",
"                        O @ 5 g C F } +.#.%.;.,.<.<.,.;.%.#.+.} F C g 5 @ O                         ",
"                      @ @ 4 0 M D } O.@.#.$.%.&.=.=.&.%.$.#.@.O.} D M 0 4 @ @                       ",
"                    X @ 4 6 g C ( +.@.#.#.#.$.$.%.%.$.$.#.#.#.@.+.( C g 6 4 @ X                     ",
"                  X X @ 5 e M A } +.#.#.#.#.#.#.#.#.#.#.#.#.#.#.+.} A M e 5 @ X X                   ",
"                  X X $ 6 m B D [ O.+.@.#.#.#.#.#.#.#.#.#.#.@.+.O.[ D B m 6 $ X X                   ",
"                  X X $ e N Z S F [ } +.#.#.#.#.#.#.#.#.#.#.+.} [ F S Z N e $ X X                   ",
"                  X X $ e B S S S D [ O.@.@.@.@.@.@.@.@.@.@.O.[ D S S S B e $ X X                   ",
"                  X X $ g C S S S S F { } O.O.O.O.O.O.O.O.} { F S S S S C g $ X X                   ",
"                  X X $ g V S S S S D F ] ] ] ] ] ] ] ] ] ] F D S S S S V g $ X X                   ",
"                  X X $ e B S S S S S S S S S S S S S S S S S S S S S S B e $ X X                   ",
"                  X X $ w M V Z S S S S S S S S S S S S S S S S S S Z V M w $ X X                   ",
"                  X X $ 6 g N V Z S S S S S S S S S S S S S S S S Z V N g 6 $ X X                   ",
"                  X X @ 5 e m N Z S S S S S S S S S S S S S S S S Z N m e 5 @ X X                   ",
"                  X X @ 5 7 n M B V V V V V V V V V V V V V V V V B M n 7 5 @ X X                   ",
"                  X X @ 5 7 n m m M N N M M M M M M M M M M N N M m m n 7 5 @ X X                   ",
"                  X X @ 5 7 e n n n n n n n n n n n n n n n n n n n n e 7 5 @ X X                   ",
"                    X @ 4 6 7 e e e e e e e e e e e e e e e e e e e e 7 6 4 @ X                     ",
"                    X @ $ $ 5 6 e e n t t 8 8 8 8 8 8 8 8 t t n e e 6 5 $ $ @ X                     ",
"                      + + @ $ 5 w e g e e e e e e e e e e e e g e 7 5 $ @ + +                       ",
"                        X X @ 4 6 7 e e r r r r r r r r r r e e 7 6 4 @ X X                         ",
"                        X X + $ 4 5 5 9 q q 1 3 3 3 3 1 q q 9 5 5 4 $ + X X                         ",
"                            + + @ @ * * - , u u p p u u , - * * @ @ + +                             ",
"                              + + o # & : y i s s s s i y : & # o + +                               ",
"                              o # # & > y i s H H H H s i y > & # # o                               ",
"                              # % & : y i s H J K K J H s i y : & % #                               ",
"                              # % ; > y i G K L P P L K G i y > ; % #                               ",
"                              # % & : > u d K R Q Q R K d u > : & % #                               ",
"                                  # % ; > a T ! ` ` ! T a > ; % #                                   ",
"                                    # % : a Y ! ` ` ! Y a : % #                                     ",
"                                    o # & 2 I E W W E I 2 & # o                                     ",
"                                      o # - 2 f f f f 2 - # o                                       ",
"                                                                                                    ",
"                                                                                                    ",
"                                                                                                    ",
"                                                                                                    ",
"                                                                                                    "
};
